# xmcd CD database file
#
# Track frame offsets:
#	150
#	32225
#	56392
#	87536
#	115324
#	155294
#	171567
#	189714
#	214341
#	240993
#
# Disc length: 3505 seconds
#
# Revision: 0
# Processed by: cddbd v1.4PL0 Copyright (c) Steve Scherf et al.
# Submitted via: CDex 1.50beta10
#
DISCID=8a0daf0a
DTITLE=Helen Matthews - Raising the Standard
DYEAR=1997
DGENRE=Jazz
TTITLE0=Wild is the Wind
TTITLE1=Star Eyes
TTITLE2=Blue Moon
TTITLE3=Old Devil Moon
TTITLE4=Body and Soul
TTITLE5=Fascinating Rhythm
TTITLE6=If Dogs Run Free
TTITLE7=Lets Fly
TTITLE8=Secret Love
TTITLE9=Not Exactly Paris
EXTD=YEAR: 1997
EXTT0=
EXTT1=
EXTT2=
EXTT3=
EXTT4=
EXTT5=
EXTT6=
EXTT7=
EXTT8=
EXTT9=
PLAYORDER=
